<?xml version="1.0" encoding="UTF-8" standalone="no"?>
<svg width="100" height="100" viewBox="0 0 100 100" xmlns="http://www.w3.org/2000/svg">
  <!-- Background -->
  <rect width="100" height="100" fill="#FF3B3F" opacity="0.8"/>
  
  <!-- Watermelon rind -->
  <path d="M0,100 L100,100 L100,85 C75,95 25,95 0,85 Z" fill="#7DCE82"/>
  
  <!-- Seeds -->
  <ellipse cx="20" cy="30" rx="3" ry="5" transform="rotate(30 20 30)" fill="#3A3042"/>
  <ellipse cx="40" cy="50" rx="3" ry="5" transform="rotate(-15 40 50)" fill="#3A3042"/>
  <ellipse cx="60" cy="40" rx="3" ry="5" transform="rotate(45 60 40)" fill="#3A3042"/>
  <ellipse cx="80" cy="60" rx="3" ry="5" transform="rotate(-30 80 60)" fill="#3A3042"/>
  <ellipse cx="30" cy="70" rx="3" ry="5" transform="rotate(15 30 70)" fill="#3A3042"/>
  <ellipse cx="70" cy="25" rx="3" ry="5" transform="rotate(-45 70 25)" fill="#3A3042"/>
  <ellipse cx="50" cy="80" rx="3" ry="5" transform="rotate(60 50 80)" fill="#3A3042"/>
</svg>
